<mxfile host="app.diagrams.net" modified="2023-11-24T07:08:54.670Z" agent="Mozilla/5.0 (Windows NT 10.0; Win64; x64) AppleWebKit/537.36 (KHTML, like Gecko) Chrome/120.0.0.0 Safari/537.36 Edg/120.0.0.0" etag="FR7g3PcMjSBpj63M5Sh8" version="22.1.3" type="github">
  <diagram id="C5RBs43oDa-KdzZeNtuy" name="Page-1">
    <mxGraphModel dx="1462" dy="576" grid="1" gridSize="10" guides="1" tooltips="1" connect="1" arrows="1" fold="1" page="1" pageScale="1" pageWidth="827" pageHeight="1169" math="0" shadow="0">
      <root>
        <mxCell id="WIyWlLk6GJQsqaUBKTNV-0" />
        <mxCell id="WIyWlLk6GJQsqaUBKTNV-1" parent="WIyWlLk6GJQsqaUBKTNV-0" />
        <mxCell id="pWDJ1lg3izUaxeUPgroV-103" value="Power BI report" style="shape=image;verticalLabelPosition=bottom;labelBackgroundColor=default;verticalAlign=top;aspect=fixed;imageAspect=0;image=data:image/svg+xml,PHN2ZyB4bWxuczp4bGluaz0iaHR0cDovL3d3dy53My5vcmcvMTk5OS94bGluayIgeG1sbnM9Imh0dHA6Ly93d3cudzMub3JnLzIwMDAvc3ZnIiB2ZXJzaW9uPSIxLjEiIHZpZXdCb3g9IjAgMCA2MzAgNjMwIiBoZWlnaHQ9IjYzMHB4IiB3aWR0aD0iNjMwcHgiPiYjeGE7ICAgICYjeGE7ICAgIDx0aXRsZT5QQkkgTG9nbzwvdGl0bGU+JiN4YTsgICAgPGRlc2M+Q3JlYXRlZCB3aXRoIFNrZXRjaC48L2Rlc2M+JiN4YTsgICAgPGRlZnM+JiN4YTsgICAgICAgIDxsaW5lYXJHcmFkaWVudCBpZD0ibGluZWFyR3JhZGllbnQtMSIgeTI9IjEwMCUiIHgyPSI1MCUiIHkxPSIwJSIgeDE9IjUwJSI+JiN4YTsgICAgICAgICAgICA8c3RvcCBvZmZzZXQ9IjAlIiBzdG9wLWNvbG9yPSIjRUJCQjE0Ii8+JiN4YTsgICAgICAgICAgICA8c3RvcCBvZmZzZXQ9IjEwMCUiIHN0b3AtY29sb3I9IiNCMjU0MDAiLz4mI3hhOyAgICAgICAgPC9saW5lYXJHcmFkaWVudD4mI3hhOyAgICAgICAgPGxpbmVhckdyYWRpZW50IGlkPSJsaW5lYXJHcmFkaWVudC0yIiB5Mj0iMTAwJSIgeDI9IjUwJSIgeTE9IjAlIiB4MT0iNTAlIj4mI3hhOyAgICAgICAgICAgIDxzdG9wIG9mZnNldD0iMCUiIHN0b3AtY29sb3I9IiNGOUU1ODMiLz4mI3hhOyAgICAgICAgICAgIDxzdG9wIG9mZnNldD0iMTAwJSIgc3RvcC1jb2xvcj0iI0RFOTgwMCIvPiYjeGE7ICAgICAgICA8L2xpbmVhckdyYWRpZW50PiYjeGE7ICAgICAgICA8cGF0aCBpZD0icGF0aC0zIiBkPSJNMzQ2LDYwNCBMMzQ2LDYzMCBMMzIwLDYzMCBMMTUzLDYzMCBDMTM4LjY0MDU5Nyw2MzAgMTI3LDYxOC4zNTk0MDMgMTI3LDYwNCBMMTI3LDE4MyBDMTI3LDE2OC42NDA1OTcgMTM4LjY0MDU5NywxNTcgMTUzLDE1NyBMMzIwLDE1NyBDMzM0LjM1OTQwMywxNTcgMzQ2LDE2OC42NDA1OTcgMzQ2LDE4MyBMMzQ2LDYwNCBaIi8+JiN4YTsgICAgICAgIDxmaWx0ZXIgaWQ9ImZpbHRlci00IiBmaWx0ZXJVbml0cz0ib2JqZWN0Qm91bmRpbmdCb3giIGhlaWdodD0iMTE2LjklIiB3aWR0aD0iMTM2LjUlIiB5PSItNi4zJSIgeD0iLTkuMSUiPiYjeGE7ICAgICAgICAgICAgPGZlT2Zmc2V0IHJlc3VsdD0ic2hhZG93T2Zmc2V0T3V0ZXIxIiBpbj0iU291cmNlQWxwaGEiIGR5PSIxMCIgZHg9IjIwIi8+JiN4YTsgICAgICAgICAgICA8ZmVHYXVzc2lhbkJsdXIgcmVzdWx0PSJzaGFkb3dCbHVyT3V0ZXIxIiBpbj0ic2hhZG93T2Zmc2V0T3V0ZXIxIiBzdGREZXZpYXRpb249IjEwIi8+JiN4YTsgICAgICAgICAgICA8ZmVDb2xvck1hdHJpeCBpbj0ic2hhZG93Qmx1ck91dGVyMSIgdHlwZT0ibWF0cml4IiB2YWx1ZXM9IjAgMCAwIDAgMCAgIDAgMCAwIDAgMCAgIDAgMCAwIDAgMCAgMCAwIDAgMC4wNTMwMjExOTc2IDAiLz4mI3hhOyAgICAgICAgPC9maWx0ZXI+JiN4YTsgICAgICAgIDxsaW5lYXJHcmFkaWVudCBpZD0ibGluZWFyR3JhZGllbnQtNSIgeTI9IjEwMCUiIHgyPSI1MCUiIHkxPSIwJSIgeDE9IjUwJSI+JiN4YTsgICAgICAgICAgICA8c3RvcCBvZmZzZXQ9IjAlIiBzdG9wLWNvbG9yPSIjRjlFNjhCIi8+JiN4YTsgICAgICAgICAgICA8c3RvcCBvZmZzZXQ9IjEwMCUiIHN0b3AtY29sb3I9IiNGM0NEMzIiLz4mI3hhOyAgICAgICAgPC9saW5lYXJHcmFkaWVudD4mI3hhOyAgICA8L2RlZnM+JiN4YTsgICAgPGcgZmlsbC1ydWxlPSJldmVub2RkIiBmaWxsPSJub25lIiBzdHJva2Utd2lkdGg9IjEiIHN0cm9rZT0ibm9uZSIgaWQ9IlBCSS1Mb2dvIj4mI3hhOyAgICAgICAgPGcgdHJhbnNmb3JtPSJ0cmFuc2xhdGUoNzcuNTAwMDAwLCAwLjAwMDAwMCkiIGlkPSJHcm91cCI+JiN4YTsgICAgICAgICAgICA8cmVjdCByeD0iMjYiIGhlaWdodD0iNjMwIiB3aWR0aD0iMjE5IiB5PSIwIiB4PSIyNTYiIGZpbGw9InVybCgjbGluZWFyR3JhZGllbnQtMSkiIGlkPSJSZWN0YW5nbGUiLz4mI3hhOyAgICAgICAgICAgIDxnIGlkPSJDb21iaW5lZC1TaGFwZSI+JiN4YTsgICAgICAgICAgICAgICAgPHVzZSB4bGluazpocmVmPSIjcGF0aC0zIiBmaWx0ZXI9InVybCgjZmlsdGVyLTQpIiBmaWxsLW9wYWNpdHk9IjEiIGZpbGw9ImJsYWNrIi8+JiN4YTsgICAgICAgICAgICAgICAgPHVzZSB4bGluazpocmVmPSIjcGF0aC0zIiBmaWxsLXJ1bGU9ImV2ZW5vZGQiIGZpbGw9InVybCgjbGluZWFyR3JhZGllbnQtMikiLz4mI3hhOyAgICAgICAgICAgIDwvZz4mI3hhOyAgICAgICAgICAgIDxwYXRoIGZpbGw9InVybCgjbGluZWFyR3JhZGllbnQtNSkiIGlkPSJDb21iaW5lZC1TaGFwZSIgZD0iTTIxOSw2MDQgTDIxOSw2MzAgTDE5Myw2MzAgTDI2LDYzMCBDMTEuNjQwNTk2NSw2MzAgMS43NTg1MTk3NWUtMTUsNjE4LjM1OTQwMyAwLDYwNCBMMCwzNDEgQy0xLjc1ODUxOTc1ZS0xNSwzMjYuNjQwNTk3IDExLjY0MDU5NjUsMzE1IDI2LDMxNSBMMTkzLDMxNSBDMjA3LjM1OTQwMywzMTUgMjE5LDMyNi42NDA1OTcgMjE5LDM0MSBMMjE5LDYwNCBaIi8+JiN4YTsgICAgICAgIDwvZz4mI3hhOyAgICA8L2c+JiN4YTs8L3N2Zz4=;" vertex="1" parent="WIyWlLk6GJQsqaUBKTNV-1">
          <mxGeometry x="980" y="334.73" width="60" height="60" as="geometry" />
        </mxCell>
        <mxCell id="pWDJ1lg3izUaxeUPgroV-107" value="" style="edgeStyle=orthogonalEdgeStyle;rounded=0;orthogonalLoop=1;jettySize=auto;html=1;strokeColor=#10151C;fontSize=11;strokeWidth=1;" edge="1" parent="WIyWlLk6GJQsqaUBKTNV-1" source="pWDJ1lg3izUaxeUPgroV-108" target="pWDJ1lg3izUaxeUPgroV-112">
          <mxGeometry relative="1" as="geometry">
            <Array as="points">
              <mxPoint x="907" y="51" />
              <mxPoint x="907" y="51" />
            </Array>
          </mxGeometry>
        </mxCell>
        <mxCell id="pWDJ1lg3izUaxeUPgroV-108" value="Local Machine" style="shape=image;html=1;verticalAlign=top;verticalLabelPosition=bottom;labelBackgroundColor=#ffffff;imageAspect=0;aspect=fixed;image=https://cdn3.iconfinder.com/data/icons/document-icons-2/30/647702-excel-128.png;fontSize=11;strokeWidth=1;" vertex="1" parent="WIyWlLk6GJQsqaUBKTNV-1">
          <mxGeometry x="683" y="23" width="58" height="58" as="geometry" />
        </mxCell>
        <mxCell id="pWDJ1lg3izUaxeUPgroV-109" value="" style="edgeStyle=orthogonalEdgeStyle;rounded=0;orthogonalLoop=1;jettySize=auto;html=1;strokeColor=#10151C;fontSize=11;strokeWidth=1;" edge="1" parent="WIyWlLk6GJQsqaUBKTNV-1" source="pWDJ1lg3izUaxeUPgroV-111" target="pWDJ1lg3izUaxeUPgroV-108">
          <mxGeometry relative="1" as="geometry" />
        </mxCell>
        <mxCell id="pWDJ1lg3izUaxeUPgroV-111" value="Cosmos VC" style="aspect=fixed;html=1;points=[];align=center;image;fontSize=12;image=img/lib/azure2/databases/Azure_Cosmos_DB.svg;strokeWidth=1;" vertex="1" parent="WIyWlLk6GJQsqaUBKTNV-1">
          <mxGeometry x="450" y="20" width="64" height="64" as="geometry" />
        </mxCell>
        <mxCell id="pWDJ1lg3izUaxeUPgroV-112" value="Power BI report" style="shape=image;verticalLabelPosition=bottom;labelBackgroundColor=default;verticalAlign=top;aspect=fixed;imageAspect=0;image=data:image/svg+xml,PHN2ZyB4bWxuczp4bGluaz0iaHR0cDovL3d3dy53My5vcmcvMTk5OS94bGluayIgeG1sbnM9Imh0dHA6Ly93d3cudzMub3JnLzIwMDAvc3ZnIiB2ZXJzaW9uPSIxLjEiIHZpZXdCb3g9IjAgMCA2MzAgNjMwIiBoZWlnaHQ9IjYzMHB4IiB3aWR0aD0iNjMwcHgiPiYjeGE7ICAgICYjeGE7ICAgIDx0aXRsZT5QQkkgTG9nbzwvdGl0bGU+JiN4YTsgICAgPGRlc2M+Q3JlYXRlZCB3aXRoIFNrZXRjaC48L2Rlc2M+JiN4YTsgICAgPGRlZnM+JiN4YTsgICAgICAgIDxsaW5lYXJHcmFkaWVudCBpZD0ibGluZWFyR3JhZGllbnQtMSIgeTI9IjEwMCUiIHgyPSI1MCUiIHkxPSIwJSIgeDE9IjUwJSI+JiN4YTsgICAgICAgICAgICA8c3RvcCBvZmZzZXQ9IjAlIiBzdG9wLWNvbG9yPSIjRUJCQjE0Ii8+JiN4YTsgICAgICAgICAgICA8c3RvcCBvZmZzZXQ9IjEwMCUiIHN0b3AtY29sb3I9IiNCMjU0MDAiLz4mI3hhOyAgICAgICAgPC9saW5lYXJHcmFkaWVudD4mI3hhOyAgICAgICAgPGxpbmVhckdyYWRpZW50IGlkPSJsaW5lYXJHcmFkaWVudC0yIiB5Mj0iMTAwJSIgeDI9IjUwJSIgeTE9IjAlIiB4MT0iNTAlIj4mI3hhOyAgICAgICAgICAgIDxzdG9wIG9mZnNldD0iMCUiIHN0b3AtY29sb3I9IiNGOUU1ODMiLz4mI3hhOyAgICAgICAgICAgIDxzdG9wIG9mZnNldD0iMTAwJSIgc3RvcC1jb2xvcj0iI0RFOTgwMCIvPiYjeGE7ICAgICAgICA8L2xpbmVhckdyYWRpZW50PiYjeGE7ICAgICAgICA8cGF0aCBpZD0icGF0aC0zIiBkPSJNMzQ2LDYwNCBMMzQ2LDYzMCBMMzIwLDYzMCBMMTUzLDYzMCBDMTM4LjY0MDU5Nyw2MzAgMTI3LDYxOC4zNTk0MDMgMTI3LDYwNCBMMTI3LDE4MyBDMTI3LDE2OC42NDA1OTcgMTM4LjY0MDU5NywxNTcgMTUzLDE1NyBMMzIwLDE1NyBDMzM0LjM1OTQwMywxNTcgMzQ2LDE2OC42NDA1OTcgMzQ2LDE4MyBMMzQ2LDYwNCBaIi8+JiN4YTsgICAgICAgIDxmaWx0ZXIgaWQ9ImZpbHRlci00IiBmaWx0ZXJVbml0cz0ib2JqZWN0Qm91bmRpbmdCb3giIGhlaWdodD0iMTE2LjklIiB3aWR0aD0iMTM2LjUlIiB5PSItNi4zJSIgeD0iLTkuMSUiPiYjeGE7ICAgICAgICAgICAgPGZlT2Zmc2V0IHJlc3VsdD0ic2hhZG93T2Zmc2V0T3V0ZXIxIiBpbj0iU291cmNlQWxwaGEiIGR5PSIxMCIgZHg9IjIwIi8+JiN4YTsgICAgICAgICAgICA8ZmVHYXVzc2lhbkJsdXIgcmVzdWx0PSJzaGFkb3dCbHVyT3V0ZXIxIiBpbj0ic2hhZG93T2Zmc2V0T3V0ZXIxIiBzdGREZXZpYXRpb249IjEwIi8+JiN4YTsgICAgICAgICAgICA8ZmVDb2xvck1hdHJpeCBpbj0ic2hhZG93Qmx1ck91dGVyMSIgdHlwZT0ibWF0cml4IiB2YWx1ZXM9IjAgMCAwIDAgMCAgIDAgMCAwIDAgMCAgIDAgMCAwIDAgMCAgMCAwIDAgMC4wNTMwMjExOTc2IDAiLz4mI3hhOyAgICAgICAgPC9maWx0ZXI+JiN4YTsgICAgICAgIDxsaW5lYXJHcmFkaWVudCBpZD0ibGluZWFyR3JhZGllbnQtNSIgeTI9IjEwMCUiIHgyPSI1MCUiIHkxPSIwJSIgeDE9IjUwJSI+JiN4YTsgICAgICAgICAgICA8c3RvcCBvZmZzZXQ9IjAlIiBzdG9wLWNvbG9yPSIjRjlFNjhCIi8+JiN4YTsgICAgICAgICAgICA8c3RvcCBvZmZzZXQ9IjEwMCUiIHN0b3AtY29sb3I9IiNGM0NEMzIiLz4mI3hhOyAgICAgICAgPC9saW5lYXJHcmFkaWVudD4mI3hhOyAgICA8L2RlZnM+JiN4YTsgICAgPGcgZmlsbC1ydWxlPSJldmVub2RkIiBmaWxsPSJub25lIiBzdHJva2Utd2lkdGg9IjEiIHN0cm9rZT0ibm9uZSIgaWQ9IlBCSS1Mb2dvIj4mI3hhOyAgICAgICAgPGcgdHJhbnNmb3JtPSJ0cmFuc2xhdGUoNzcuNTAwMDAwLCAwLjAwMDAwMCkiIGlkPSJHcm91cCI+JiN4YTsgICAgICAgICAgICA8cmVjdCByeD0iMjYiIGhlaWdodD0iNjMwIiB3aWR0aD0iMjE5IiB5PSIwIiB4PSIyNTYiIGZpbGw9InVybCgjbGluZWFyR3JhZGllbnQtMSkiIGlkPSJSZWN0YW5nbGUiLz4mI3hhOyAgICAgICAgICAgIDxnIGlkPSJDb21iaW5lZC1TaGFwZSI+JiN4YTsgICAgICAgICAgICAgICAgPHVzZSB4bGluazpocmVmPSIjcGF0aC0zIiBmaWx0ZXI9InVybCgjZmlsdGVyLTQpIiBmaWxsLW9wYWNpdHk9IjEiIGZpbGw9ImJsYWNrIi8+JiN4YTsgICAgICAgICAgICAgICAgPHVzZSB4bGluazpocmVmPSIjcGF0aC0zIiBmaWxsLXJ1bGU9ImV2ZW5vZGQiIGZpbGw9InVybCgjbGluZWFyR3JhZGllbnQtMikiLz4mI3hhOyAgICAgICAgICAgIDwvZz4mI3hhOyAgICAgICAgICAgIDxwYXRoIGZpbGw9InVybCgjbGluZWFyR3JhZGllbnQtNSkiIGlkPSJDb21iaW5lZC1TaGFwZSIgZD0iTTIxOSw2MDQgTDIxOSw2MzAgTDE5Myw2MzAgTDI2LDYzMCBDMTEuNjQwNTk2NSw2MzAgMS43NTg1MTk3NWUtMTUsNjE4LjM1OTQwMyAwLDYwNCBMMCwzNDEgQy0xLjc1ODUxOTc1ZS0xNSwzMjYuNjQwNTk3IDExLjY0MDU5NjUsMzE1IDI2LDMxNSBMMTkzLDMxNSBDMjA3LjM1OTQwMywzMTUgMjE5LDMyNi42NDA1OTcgMjE5LDM0MSBMMjE5LDYwNCBaIi8+JiN4YTsgICAgICAgIDwvZz4mI3hhOyAgICA8L2c+JiN4YTs8L3N2Zz4=;strokeWidth=1;" vertex="1" parent="WIyWlLk6GJQsqaUBKTNV-1">
          <mxGeometry x="934" y="20" width="60" height="60" as="geometry" />
        </mxCell>
        <mxCell id="pWDJ1lg3izUaxeUPgroV-128" value="OneSans | Monthly&amp;nbsp;" style="html=1;verticalLabelPosition=bottom;align=center;labelBackgroundColor=#ffffff;verticalAlign=top;strokeWidth=2;strokeColor=#0080F0;shadow=0;dashed=0;shape=mxgraph.ios7.icons.cube;fontSize=11;" vertex="1" parent="WIyWlLk6GJQsqaUBKTNV-1">
          <mxGeometry x="482.64" y="361.94" width="60" height="57.53" as="geometry" />
        </mxCell>
        <mxCell id="pWDJ1lg3izUaxeUPgroV-131" value="MSN Dataset" style="shape=image;verticalLabelPosition=bottom;labelBackgroundColor=default;verticalAlign=top;aspect=fixed;imageAspect=0;image=data:image/svg+xml,PHN2ZyB4bWxuczp4bGluaz0iaHR0cDovL3d3dy53My5vcmcvMTk5OS94bGluayIgeG1sbnM9Imh0dHA6Ly93d3cudzMub3JnLzIwMDAvc3ZnIiB2ZXJzaW9uPSIxLjEiIHZpZXdCb3g9IjAgMCA2MzAgNjMwIiBoZWlnaHQ9IjYzMHB4IiB3aWR0aD0iNjMwcHgiPiYjeGE7ICAgICYjeGE7ICAgIDx0aXRsZT5QQkkgTG9nbzwvdGl0bGU+JiN4YTsgICAgPGRlc2M+Q3JlYXRlZCB3aXRoIFNrZXRjaC48L2Rlc2M+JiN4YTsgICAgPGRlZnM+JiN4YTsgICAgICAgIDxsaW5lYXJHcmFkaWVudCBpZD0ibGluZWFyR3JhZGllbnQtMSIgeTI9IjEwMCUiIHgyPSI1MCUiIHkxPSIwJSIgeDE9IjUwJSI+JiN4YTsgICAgICAgICAgICA8c3RvcCBvZmZzZXQ9IjAlIiBzdG9wLWNvbG9yPSIjRUJCQjE0Ii8+JiN4YTsgICAgICAgICAgICA8c3RvcCBvZmZzZXQ9IjEwMCUiIHN0b3AtY29sb3I9IiNCMjU0MDAiLz4mI3hhOyAgICAgICAgPC9saW5lYXJHcmFkaWVudD4mI3hhOyAgICAgICAgPGxpbmVhckdyYWRpZW50IGlkPSJsaW5lYXJHcmFkaWVudC0yIiB5Mj0iMTAwJSIgeDI9IjUwJSIgeTE9IjAlIiB4MT0iNTAlIj4mI3hhOyAgICAgICAgICAgIDxzdG9wIG9mZnNldD0iMCUiIHN0b3AtY29sb3I9IiNGOUU1ODMiLz4mI3hhOyAgICAgICAgICAgIDxzdG9wIG9mZnNldD0iMTAwJSIgc3RvcC1jb2xvcj0iI0RFOTgwMCIvPiYjeGE7ICAgICAgICA8L2xpbmVhckdyYWRpZW50PiYjeGE7ICAgICAgICA8cGF0aCBpZD0icGF0aC0zIiBkPSJNMzQ2LDYwNCBMMzQ2LDYzMCBMMzIwLDYzMCBMMTUzLDYzMCBDMTM4LjY0MDU5Nyw2MzAgMTI3LDYxOC4zNTk0MDMgMTI3LDYwNCBMMTI3LDE4MyBDMTI3LDE2OC42NDA1OTcgMTM4LjY0MDU5NywxNTcgMTUzLDE1NyBMMzIwLDE1NyBDMzM0LjM1OTQwMywxNTcgMzQ2LDE2OC42NDA1OTcgMzQ2LDE4MyBMMzQ2LDYwNCBaIi8+JiN4YTsgICAgICAgIDxmaWx0ZXIgaWQ9ImZpbHRlci00IiBmaWx0ZXJVbml0cz0ib2JqZWN0Qm91bmRpbmdCb3giIGhlaWdodD0iMTE2LjklIiB3aWR0aD0iMTM2LjUlIiB5PSItNi4zJSIgeD0iLTkuMSUiPiYjeGE7ICAgICAgICAgICAgPGZlT2Zmc2V0IHJlc3VsdD0ic2hhZG93T2Zmc2V0T3V0ZXIxIiBpbj0iU291cmNlQWxwaGEiIGR5PSIxMCIgZHg9IjIwIi8+JiN4YTsgICAgICAgICAgICA8ZmVHYXVzc2lhbkJsdXIgcmVzdWx0PSJzaGFkb3dCbHVyT3V0ZXIxIiBpbj0ic2hhZG93T2Zmc2V0T3V0ZXIxIiBzdGREZXZpYXRpb249IjEwIi8+JiN4YTsgICAgICAgICAgICA8ZmVDb2xvck1hdHJpeCBpbj0ic2hhZG93Qmx1ck91dGVyMSIgdHlwZT0ibWF0cml4IiB2YWx1ZXM9IjAgMCAwIDAgMCAgIDAgMCAwIDAgMCAgIDAgMCAwIDAgMCAgMCAwIDAgMC4wNTMwMjExOTc2IDAiLz4mI3hhOyAgICAgICAgPC9maWx0ZXI+JiN4YTsgICAgICAgIDxsaW5lYXJHcmFkaWVudCBpZD0ibGluZWFyR3JhZGllbnQtNSIgeTI9IjEwMCUiIHgyPSI1MCUiIHkxPSIwJSIgeDE9IjUwJSI+JiN4YTsgICAgICAgICAgICA8c3RvcCBvZmZzZXQ9IjAlIiBzdG9wLWNvbG9yPSIjRjlFNjhCIi8+JiN4YTsgICAgICAgICAgICA8c3RvcCBvZmZzZXQ9IjEwMCUiIHN0b3AtY29sb3I9IiNGM0NEMzIiLz4mI3hhOyAgICAgICAgPC9saW5lYXJHcmFkaWVudD4mI3hhOyAgICA8L2RlZnM+JiN4YTsgICAgPGcgZmlsbC1ydWxlPSJldmVub2RkIiBmaWxsPSJub25lIiBzdHJva2Utd2lkdGg9IjEiIHN0cm9rZT0ibm9uZSIgaWQ9IlBCSS1Mb2dvIj4mI3hhOyAgICAgICAgPGcgdHJhbnNmb3JtPSJ0cmFuc2xhdGUoNzcuNTAwMDAwLCAwLjAwMDAwMCkiIGlkPSJHcm91cCI+JiN4YTsgICAgICAgICAgICA8cmVjdCByeD0iMjYiIGhlaWdodD0iNjMwIiB3aWR0aD0iMjE5IiB5PSIwIiB4PSIyNTYiIGZpbGw9InVybCgjbGluZWFyR3JhZGllbnQtMSkiIGlkPSJSZWN0YW5nbGUiLz4mI3hhOyAgICAgICAgICAgIDxnIGlkPSJDb21iaW5lZC1TaGFwZSI+JiN4YTsgICAgICAgICAgICAgICAgPHVzZSB4bGluazpocmVmPSIjcGF0aC0zIiBmaWx0ZXI9InVybCgjZmlsdGVyLTQpIiBmaWxsLW9wYWNpdHk9IjEiIGZpbGw9ImJsYWNrIi8+JiN4YTsgICAgICAgICAgICAgICAgPHVzZSB4bGluazpocmVmPSIjcGF0aC0zIiBmaWxsLXJ1bGU9ImV2ZW5vZGQiIGZpbGw9InVybCgjbGluZWFyR3JhZGllbnQtMikiLz4mI3hhOyAgICAgICAgICAgIDwvZz4mI3hhOyAgICAgICAgICAgIDxwYXRoIGZpbGw9InVybCgjbGluZWFyR3JhZGllbnQtNSkiIGlkPSJDb21iaW5lZC1TaGFwZSIgZD0iTTIxOSw2MDQgTDIxOSw2MzAgTDE5Myw2MzAgTDI2LDYzMCBDMTEuNjQwNTk2NSw2MzAgMS43NTg1MTk3NWUtMTUsNjE4LjM1OTQwMyAwLDYwNCBMMCwzNDEgQy0xLjc1ODUxOTc1ZS0xNSwzMjYuNjQwNTk3IDExLjY0MDU5NjUsMzE1IDI2LDMxNSBMMTkzLDMxNSBDMjA3LjM1OTQwMywzMTUgMjE5LDMyNi42NDA1OTcgMjE5LDM0MSBMMjE5LDYwNCBaIi8+JiN4YTsgICAgICAgIDwvZz4mI3hhOyAgICA8L2c+JiN4YTs8L3N2Zz4=;" vertex="1" parent="WIyWlLk6GJQsqaUBKTNV-1">
          <mxGeometry x="660" y="346" width="60" height="60" as="geometry" />
        </mxCell>
        <mxCell id="pWDJ1lg3izUaxeUPgroV-135" value="Power BI report" style="shape=image;verticalLabelPosition=bottom;labelBackgroundColor=default;verticalAlign=top;aspect=fixed;imageAspect=0;image=data:image/svg+xml,PHN2ZyB4bWxuczp4bGluaz0iaHR0cDovL3d3dy53My5vcmcvMTk5OS94bGluayIgeG1sbnM9Imh0dHA6Ly93d3cudzMub3JnLzIwMDAvc3ZnIiB2ZXJzaW9uPSIxLjEiIHZpZXdCb3g9IjAgMCA2MzAgNjMwIiBoZWlnaHQ9IjYzMHB4IiB3aWR0aD0iNjMwcHgiPiYjeGE7ICAgICYjeGE7ICAgIDx0aXRsZT5QQkkgTG9nbzwvdGl0bGU+JiN4YTsgICAgPGRlc2M+Q3JlYXRlZCB3aXRoIFNrZXRjaC48L2Rlc2M+JiN4YTsgICAgPGRlZnM+JiN4YTsgICAgICAgIDxsaW5lYXJHcmFkaWVudCBpZD0ibGluZWFyR3JhZGllbnQtMSIgeTI9IjEwMCUiIHgyPSI1MCUiIHkxPSIwJSIgeDE9IjUwJSI+JiN4YTsgICAgICAgICAgICA8c3RvcCBvZmZzZXQ9IjAlIiBzdG9wLWNvbG9yPSIjRUJCQjE0Ii8+JiN4YTsgICAgICAgICAgICA8c3RvcCBvZmZzZXQ9IjEwMCUiIHN0b3AtY29sb3I9IiNCMjU0MDAiLz4mI3hhOyAgICAgICAgPC9saW5lYXJHcmFkaWVudD4mI3hhOyAgICAgICAgPGxpbmVhckdyYWRpZW50IGlkPSJsaW5lYXJHcmFkaWVudC0yIiB5Mj0iMTAwJSIgeDI9IjUwJSIgeTE9IjAlIiB4MT0iNTAlIj4mI3hhOyAgICAgICAgICAgIDxzdG9wIG9mZnNldD0iMCUiIHN0b3AtY29sb3I9IiNGOUU1ODMiLz4mI3hhOyAgICAgICAgICAgIDxzdG9wIG9mZnNldD0iMTAwJSIgc3RvcC1jb2xvcj0iI0RFOTgwMCIvPiYjeGE7ICAgICAgICA8L2xpbmVhckdyYWRpZW50PiYjeGE7ICAgICAgICA8cGF0aCBpZD0icGF0aC0zIiBkPSJNMzQ2LDYwNCBMMzQ2LDYzMCBMMzIwLDYzMCBMMTUzLDYzMCBDMTM4LjY0MDU5Nyw2MzAgMTI3LDYxOC4zNTk0MDMgMTI3LDYwNCBMMTI3LDE4MyBDMTI3LDE2OC42NDA1OTcgMTM4LjY0MDU5NywxNTcgMTUzLDE1NyBMMzIwLDE1NyBDMzM0LjM1OTQwMywxNTcgMzQ2LDE2OC42NDA1OTcgMzQ2LDE4MyBMMzQ2LDYwNCBaIi8+JiN4YTsgICAgICAgIDxmaWx0ZXIgaWQ9ImZpbHRlci00IiBmaWx0ZXJVbml0cz0ib2JqZWN0Qm91bmRpbmdCb3giIGhlaWdodD0iMTE2LjklIiB3aWR0aD0iMTM2LjUlIiB5PSItNi4zJSIgeD0iLTkuMSUiPiYjeGE7ICAgICAgICAgICAgPGZlT2Zmc2V0IHJlc3VsdD0ic2hhZG93T2Zmc2V0T3V0ZXIxIiBpbj0iU291cmNlQWxwaGEiIGR5PSIxMCIgZHg9IjIwIi8+JiN4YTsgICAgICAgICAgICA8ZmVHYXVzc2lhbkJsdXIgcmVzdWx0PSJzaGFkb3dCbHVyT3V0ZXIxIiBpbj0ic2hhZG93T2Zmc2V0T3V0ZXIxIiBzdGREZXZpYXRpb249IjEwIi8+JiN4YTsgICAgICAgICAgICA8ZmVDb2xvck1hdHJpeCBpbj0ic2hhZG93Qmx1ck91dGVyMSIgdHlwZT0ibWF0cml4IiB2YWx1ZXM9IjAgMCAwIDAgMCAgIDAgMCAwIDAgMCAgIDAgMCAwIDAgMCAgMCAwIDAgMC4wNTMwMjExOTc2IDAiLz4mI3hhOyAgICAgICAgPC9maWx0ZXI+JiN4YTsgICAgICAgIDxsaW5lYXJHcmFkaWVudCBpZD0ibGluZWFyR3JhZGllbnQtNSIgeTI9IjEwMCUiIHgyPSI1MCUiIHkxPSIwJSIgeDE9IjUwJSI+JiN4YTsgICAgICAgICAgICA8c3RvcCBvZmZzZXQ9IjAlIiBzdG9wLWNvbG9yPSIjRjlFNjhCIi8+JiN4YTsgICAgICAgICAgICA8c3RvcCBvZmZzZXQ9IjEwMCUiIHN0b3AtY29sb3I9IiNGM0NEMzIiLz4mI3hhOyAgICAgICAgPC9saW5lYXJHcmFkaWVudD4mI3hhOyAgICA8L2RlZnM+JiN4YTsgICAgPGcgZmlsbC1ydWxlPSJldmVub2RkIiBmaWxsPSJub25lIiBzdHJva2Utd2lkdGg9IjEiIHN0cm9rZT0ibm9uZSIgaWQ9IlBCSS1Mb2dvIj4mI3hhOyAgICAgICAgPGcgdHJhbnNmb3JtPSJ0cmFuc2xhdGUoNzcuNTAwMDAwLCAwLjAwMDAwMCkiIGlkPSJHcm91cCI+JiN4YTsgICAgICAgICAgICA8cmVjdCByeD0iMjYiIGhlaWdodD0iNjMwIiB3aWR0aD0iMjE5IiB5PSIwIiB4PSIyNTYiIGZpbGw9InVybCgjbGluZWFyR3JhZGllbnQtMSkiIGlkPSJSZWN0YW5nbGUiLz4mI3hhOyAgICAgICAgICAgIDxnIGlkPSJDb21iaW5lZC1TaGFwZSI+JiN4YTsgICAgICAgICAgICAgICAgPHVzZSB4bGluazpocmVmPSIjcGF0aC0zIiBmaWx0ZXI9InVybCgjZmlsdGVyLTQpIiBmaWxsLW9wYWNpdHk9IjEiIGZpbGw9ImJsYWNrIi8+JiN4YTsgICAgICAgICAgICAgICAgPHVzZSB4bGluazpocmVmPSIjcGF0aC0zIiBmaWxsLXJ1bGU9ImV2ZW5vZGQiIGZpbGw9InVybCgjbGluZWFyR3JhZGllbnQtMikiLz4mI3hhOyAgICAgICAgICAgIDwvZz4mI3hhOyAgICAgICAgICAgIDxwYXRoIGZpbGw9InVybCgjbGluZWFyR3JhZGllbnQtNSkiIGlkPSJDb21iaW5lZC1TaGFwZSIgZD0iTTIxOSw2MDQgTDIxOSw2MzAgTDE5Myw2MzAgTDI2LDYzMCBDMTEuNjQwNTk2NSw2MzAgMS43NTg1MTk3NWUtMTUsNjE4LjM1OTQwMyAwLDYwNCBMMCwzNDEgQy0xLjc1ODUxOTc1ZS0xNSwzMjYuNjQwNTk3IDExLjY0MDU5NjUsMzE1IDI2LDMxNSBMMTkzLDMxNSBDMjA3LjM1OTQwMywzMTUgMjE5LDMyNi42NDA1OTcgMjE5LDM0MSBMMjE5LDYwNCBaIi8+JiN4YTsgICAgICAgIDwvZz4mI3hhOyAgICA8L2c+JiN4YTs8L3N2Zz4=;" vertex="1" parent="WIyWlLk6GJQsqaUBKTNV-1">
          <mxGeometry x="840" y="346" width="54" height="54" as="geometry" />
        </mxCell>
        <mxCell id="pWDJ1lg3izUaxeUPgroV-165" style="edgeStyle=orthogonalEdgeStyle;rounded=0;orthogonalLoop=1;jettySize=auto;html=1;" edge="1" parent="WIyWlLk6GJQsqaUBKTNV-1" source="pWDJ1lg3izUaxeUPgroV-137">
          <mxGeometry relative="1" as="geometry">
            <mxPoint x="430" y="293.26" as="targetPoint" />
          </mxGeometry>
        </mxCell>
        <mxCell id="pWDJ1lg3izUaxeUPgroV-139" value="Dah_rolling" style="aspect=fixed;html=1;points=[];align=center;image;fontSize=11;image=img/lib/azure2/databases/SQL_Database.svg;strokeColor=#0080F0;labelBackgroundColor=#ffffff;strokeWidth=2;shadow=0;dashed=0;" vertex="1" parent="WIyWlLk6GJQsqaUBKTNV-1">
          <mxGeometry x="190" y="746" width="46.5" height="62" as="geometry" />
        </mxCell>
        <mxCell id="pWDJ1lg3izUaxeUPgroV-140" value="Power BI report" style="shape=image;verticalLabelPosition=bottom;labelBackgroundColor=default;verticalAlign=top;aspect=fixed;imageAspect=0;image=data:image/svg+xml,PHN2ZyB4bWxuczp4bGluaz0iaHR0cDovL3d3dy53My5vcmcvMTk5OS94bGluayIgeG1sbnM9Imh0dHA6Ly93d3cudzMub3JnLzIwMDAvc3ZnIiB2ZXJzaW9uPSIxLjEiIHZpZXdCb3g9IjAgMCA2MzAgNjMwIiBoZWlnaHQ9IjYzMHB4IiB3aWR0aD0iNjMwcHgiPiYjeGE7ICAgICYjeGE7ICAgIDx0aXRsZT5QQkkgTG9nbzwvdGl0bGU+JiN4YTsgICAgPGRlc2M+Q3JlYXRlZCB3aXRoIFNrZXRjaC48L2Rlc2M+JiN4YTsgICAgPGRlZnM+JiN4YTsgICAgICAgIDxsaW5lYXJHcmFkaWVudCBpZD0ibGluZWFyR3JhZGllbnQtMSIgeTI9IjEwMCUiIHgyPSI1MCUiIHkxPSIwJSIgeDE9IjUwJSI+JiN4YTsgICAgICAgICAgICA8c3RvcCBvZmZzZXQ9IjAlIiBzdG9wLWNvbG9yPSIjRUJCQjE0Ii8+JiN4YTsgICAgICAgICAgICA8c3RvcCBvZmZzZXQ9IjEwMCUiIHN0b3AtY29sb3I9IiNCMjU0MDAiLz4mI3hhOyAgICAgICAgPC9saW5lYXJHcmFkaWVudD4mI3hhOyAgICAgICAgPGxpbmVhckdyYWRpZW50IGlkPSJsaW5lYXJHcmFkaWVudC0yIiB5Mj0iMTAwJSIgeDI9IjUwJSIgeTE9IjAlIiB4MT0iNTAlIj4mI3hhOyAgICAgICAgICAgIDxzdG9wIG9mZnNldD0iMCUiIHN0b3AtY29sb3I9IiNGOUU1ODMiLz4mI3hhOyAgICAgICAgICAgIDxzdG9wIG9mZnNldD0iMTAwJSIgc3RvcC1jb2xvcj0iI0RFOTgwMCIvPiYjeGE7ICAgICAgICA8L2xpbmVhckdyYWRpZW50PiYjeGE7ICAgICAgICA8cGF0aCBpZD0icGF0aC0zIiBkPSJNMzQ2LDYwNCBMMzQ2LDYzMCBMMzIwLDYzMCBMMTUzLDYzMCBDMTM4LjY0MDU5Nyw2MzAgMTI3LDYxOC4zNTk0MDMgMTI3LDYwNCBMMTI3LDE4MyBDMTI3LDE2OC42NDA1OTcgMTM4LjY0MDU5NywxNTcgMTUzLDE1NyBMMzIwLDE1NyBDMzM0LjM1OTQwMywxNTcgMzQ2LDE2OC42NDA1OTcgMzQ2LDE4MyBMMzQ2LDYwNCBaIi8+JiN4YTsgICAgICAgIDxmaWx0ZXIgaWQ9ImZpbHRlci00IiBmaWx0ZXJVbml0cz0ib2JqZWN0Qm91bmRpbmdCb3giIGhlaWdodD0iMTE2LjklIiB3aWR0aD0iMTM2LjUlIiB5PSItNi4zJSIgeD0iLTkuMSUiPiYjeGE7ICAgICAgICAgICAgPGZlT2Zmc2V0IHJlc3VsdD0ic2hhZG93T2Zmc2V0T3V0ZXIxIiBpbj0iU291cmNlQWxwaGEiIGR5PSIxMCIgZHg9IjIwIi8+JiN4YTsgICAgICAgICAgICA8ZmVHYXVzc2lhbkJsdXIgcmVzdWx0PSJzaGFkb3dCbHVyT3V0ZXIxIiBpbj0ic2hhZG93T2Zmc2V0T3V0ZXIxIiBzdGREZXZpYXRpb249IjEwIi8+JiN4YTsgICAgICAgICAgICA8ZmVDb2xvck1hdHJpeCBpbj0ic2hhZG93Qmx1ck91dGVyMSIgdHlwZT0ibWF0cml4IiB2YWx1ZXM9IjAgMCAwIDAgMCAgIDAgMCAwIDAgMCAgIDAgMCAwIDAgMCAgMCAwIDAgMC4wNTMwMjExOTc2IDAiLz4mI3hhOyAgICAgICAgPC9maWx0ZXI+JiN4YTsgICAgICAgIDxsaW5lYXJHcmFkaWVudCBpZD0ibGluZWFyR3JhZGllbnQtNSIgeTI9IjEwMCUiIHgyPSI1MCUiIHkxPSIwJSIgeDE9IjUwJSI+JiN4YTsgICAgICAgICAgICA8c3RvcCBvZmZzZXQ9IjAlIiBzdG9wLWNvbG9yPSIjRjlFNjhCIi8+JiN4YTsgICAgICAgICAgICA8c3RvcCBvZmZzZXQ9IjEwMCUiIHN0b3AtY29sb3I9IiNGM0NEMzIiLz4mI3hhOyAgICAgICAgPC9saW5lYXJHcmFkaWVudD4mI3hhOyAgICA8L2RlZnM+JiN4YTsgICAgPGcgZmlsbC1ydWxlPSJldmVub2RkIiBmaWxsPSJub25lIiBzdHJva2Utd2lkdGg9IjEiIHN0cm9rZT0ibm9uZSIgaWQ9IlBCSS1Mb2dvIj4mI3hhOyAgICAgICAgPGcgdHJhbnNmb3JtPSJ0cmFuc2xhdGUoNzcuNTAwMDAwLCAwLjAwMDAwMCkiIGlkPSJHcm91cCI+JiN4YTsgICAgICAgICAgICA8cmVjdCByeD0iMjYiIGhlaWdodD0iNjMwIiB3aWR0aD0iMjE5IiB5PSIwIiB4PSIyNTYiIGZpbGw9InVybCgjbGluZWFyR3JhZGllbnQtMSkiIGlkPSJSZWN0YW5nbGUiLz4mI3hhOyAgICAgICAgICAgIDxnIGlkPSJDb21iaW5lZC1TaGFwZSI+JiN4YTsgICAgICAgICAgICAgICAgPHVzZSB4bGluazpocmVmPSIjcGF0aC0zIiBmaWx0ZXI9InVybCgjZmlsdGVyLTQpIiBmaWxsLW9wYWNpdHk9IjEiIGZpbGw9ImJsYWNrIi8+JiN4YTsgICAgICAgICAgICAgICAgPHVzZSB4bGluazpocmVmPSIjcGF0aC0zIiBmaWxsLXJ1bGU9ImV2ZW5vZGQiIGZpbGw9InVybCgjbGluZWFyR3JhZGllbnQtMikiLz4mI3hhOyAgICAgICAgICAgIDwvZz4mI3hhOyAgICAgICAgICAgIDxwYXRoIGZpbGw9InVybCgjbGluZWFyR3JhZGllbnQtNSkiIGlkPSJDb21iaW5lZC1TaGFwZSIgZD0iTTIxOSw2MDQgTDIxOSw2MzAgTDE5Myw2MzAgTDI2LDYzMCBDMTEuNjQwNTk2NSw2MzAgMS43NTg1MTk3NWUtMTUsNjE4LjM1OTQwMyAwLDYwNCBMMCwzNDEgQy0xLjc1ODUxOTc1ZS0xNSwzMjYuNjQwNTk3IDExLjY0MDU5NjUsMzE1IDI2LDMxNSBMMTkzLDMxNSBDMjA3LjM1OTQwMywzMTUgMjE5LDMyNi42NDA1OTcgMjE5LDM0MSBMMjE5LDYwNCBaIi8+JiN4YTsgICAgICAgIDwvZz4mI3hhOyAgICA8L2c+JiN4YTs8L3N2Zz4=;" vertex="1" parent="WIyWlLk6GJQsqaUBKTNV-1">
          <mxGeometry x="750" y="740" width="60" height="60" as="geometry" />
        </mxCell>
        <mxCell id="pWDJ1lg3izUaxeUPgroV-157" style="edgeStyle=orthogonalEdgeStyle;rounded=0;orthogonalLoop=1;jettySize=auto;html=1;" edge="1" parent="WIyWlLk6GJQsqaUBKTNV-1" source="pWDJ1lg3izUaxeUPgroV-141" target="pWDJ1lg3izUaxeUPgroV-131">
          <mxGeometry relative="1" as="geometry" />
        </mxCell>
        <mxCell id="pWDJ1lg3izUaxeUPgroV-141" value="Dah_Rolling" style="image;aspect=fixed;html=1;points=[];align=center;fontSize=11;image=img/lib/azure2/databases/SQL_Data_Warehouses.svg;strokeColor=#0080F0;labelBackgroundColor=#ffffff;strokeWidth=2;shadow=0;dashed=0;" vertex="1" parent="WIyWlLk6GJQsqaUBKTNV-1">
          <mxGeometry x="473.25" y="470" width="78.77" height="80" as="geometry" />
        </mxCell>
        <mxCell id="pWDJ1lg3izUaxeUPgroV-155" value="" style="group" vertex="1" connectable="0" parent="WIyWlLk6GJQsqaUBKTNV-1">
          <mxGeometry x="430" y="250" width="140" height="84" as="geometry" />
        </mxCell>
        <mxCell id="pWDJ1lg3izUaxeUPgroV-142" value="" style="aspect=fixed;html=1;points=[];align=center;image;fontSize=11;image=img/lib/azure2/databases/SQL_Database.svg;strokeColor=#0080F0;labelBackgroundColor=#ffffff;strokeWidth=2;shadow=0;dashed=0;" vertex="1" parent="pWDJ1lg3izUaxeUPgroV-155">
          <mxGeometry width="27.46153846153846" height="36.61538461538461" as="geometry" />
        </mxCell>
        <mxCell id="pWDJ1lg3izUaxeUPgroV-148" value="" style="aspect=fixed;html=1;points=[];align=center;image;fontSize=11;image=img/lib/azure2/databases/SQL_Database.svg;strokeColor=#0080F0;labelBackgroundColor=#ffffff;strokeWidth=2;shadow=0;dashed=0;" vertex="1" parent="pWDJ1lg3izUaxeUPgroV-155">
          <mxGeometry x="57.85179282868527" width="27.46153846153846" height="36.61538461538461" as="geometry" />
        </mxCell>
        <mxCell id="pWDJ1lg3izUaxeUPgroV-150" value="" style="aspect=fixed;html=1;points=[];align=center;image;fontSize=11;image=img/lib/azure2/databases/SQL_Database.svg;strokeColor=#0080F0;labelBackgroundColor=#ffffff;strokeWidth=2;shadow=0;dashed=0;" vertex="1" parent="pWDJ1lg3izUaxeUPgroV-155">
          <mxGeometry x="111.55378486055776" width="27.46153846153846" height="36.61538461538461" as="geometry" />
        </mxCell>
        <mxCell id="pWDJ1lg3izUaxeUPgroV-151" value="" style="aspect=fixed;html=1;points=[];align=center;image;fontSize=11;image=img/lib/azure2/databases/SQL_Database.svg;strokeColor=#0080F0;labelBackgroundColor=#ffffff;strokeWidth=2;shadow=0;dashed=0;" vertex="1" parent="pWDJ1lg3izUaxeUPgroV-155">
          <mxGeometry y="45.4054054054054" width="27.46153846153846" height="36.61538461538461" as="geometry" />
        </mxCell>
        <mxCell id="pWDJ1lg3izUaxeUPgroV-152" value="" style="aspect=fixed;html=1;points=[];align=center;image;fontSize=11;image=img/lib/azure2/databases/SQL_Database.svg;strokeColor=#0080F0;labelBackgroundColor=#ffffff;strokeWidth=2;shadow=0;dashed=0;" vertex="1" parent="pWDJ1lg3izUaxeUPgroV-155">
          <mxGeometry x="57.85179282868527" y="45.4054054054054" width="27.46153846153846" height="36.61538461538461" as="geometry" />
        </mxCell>
        <mxCell id="pWDJ1lg3izUaxeUPgroV-154" value="" style="aspect=fixed;html=1;points=[];align=center;image;fontSize=11;image=img/lib/azure2/databases/SQL_Database.svg;strokeColor=#0080F0;labelBackgroundColor=#ffffff;strokeWidth=2;shadow=0;dashed=0;" vertex="1" parent="pWDJ1lg3izUaxeUPgroV-155">
          <mxGeometry x="111.55378486055776" y="45.4054054054054" width="27.46153846153846" height="36.61538461538461" as="geometry" />
        </mxCell>
        <mxCell id="pWDJ1lg3izUaxeUPgroV-159" style="edgeStyle=orthogonalEdgeStyle;rounded=0;orthogonalLoop=1;jettySize=auto;html=1;entryX=0.5;entryY=0;entryDx=0;entryDy=0;" edge="1" parent="WIyWlLk6GJQsqaUBKTNV-1" source="pWDJ1lg3izUaxeUPgroV-154" target="pWDJ1lg3izUaxeUPgroV-131">
          <mxGeometry relative="1" as="geometry">
            <Array as="points">
              <mxPoint x="690" y="300" />
            </Array>
          </mxGeometry>
        </mxCell>
        <mxCell id="pWDJ1lg3izUaxeUPgroV-167" value="" style="group" vertex="1" connectable="0" parent="WIyWlLk6GJQsqaUBKTNV-1">
          <mxGeometry x="120" y="210" width="210" height="184.73" as="geometry" />
        </mxCell>
        <mxCell id="pWDJ1lg3izUaxeUPgroV-137" value="" style="image;aspect=fixed;html=1;points=[];align=center;fontSize=12;image=img/lib/azure2/analytics/Azure_Databricks.svg;" vertex="1" parent="pWDJ1lg3izUaxeUPgroV-167">
          <mxGeometry x="149.99789946140035" y="49.99547009387132" width="57.015992529611225" height="61.737061974738275" as="geometry" />
        </mxCell>
        <mxCell id="pWDJ1lg3izUaxeUPgroV-144" value="Titan Dataset" style="shape=image;verticalLabelPosition=bottom;labelBackgroundColor=default;verticalAlign=top;aspect=fixed;imageAspect=0;image=data:image/png,iVBORw0KGgoAAAANSUhEUgAAAEgAAABICAYAAABV7bNHAAAPvklEQVR42u2cCVxTV/bHJyJqcaPIkpCXl+0FBK21g4paaxG3ttNVcaZax32jU5UKaG1HB6lKqXtr3QVldUXFWmtrRVDceGxJIIgghLDKmpCEbebd/7mPiJ3FSgqo8Od8Pr/PJY9H3ss3555777nn8Ydu67Zu67Zu67b/N8bhecTacl+LH8Ubf2uKw7gr7nDMEh8HPW9m4bqfJnlnkt1sflFNsbmaPZkfc3lQh92rw9gwe94ERQRvkkrrOOkuatFkVZXjn7Ii+LOK/0p8qMHALJ4hsB5OkSWjnKMr1gh+KlU60KUNdmll6NeyTSoMH3D+lqxd73HQ6GMujpMyCzCQx+qtnDLB7BpaME8Hqokm5sFNLqp4T7iw2KUDoXFEAanWspBSd2lEzWrZKWOc7KSOdrxaXIVhPE62dJFmUNjPLu1yB9zXTtg9EY5J/HdzCwVzdTQ5X08LFkK7GNplhiTBx7VXyeW6g+SKmtX8FRUTRfNSrc2ExjHJQrotRyDZUzpJeljvLz1qOCiNqEuSRtclUdFGWnbCSDteKi1pgfEESA5hMfZtB/T6TW8WQGs0+e4/iZnlaRiSYD4AWqSnySUGmvwYtNxAC32MtNAXtLouSbTWeFX4ueGgcJ3hoPgf2i/FgbVfijcZAsXBhkDhlrpA8TbQLni9E47vqTso3lt/XnygPk5ysIGWHKqjpUcbkiRhACfMSFNRzYDEJ2vkLIBWatD13KC28unJ81QqWw0IxH8/L18wB3czALQQAC0GLWuGJFxhpEkMyQ/aNdCuNdKi9Q20KKCBFm5sTBIFNdKiYNA20M4mWvRNEy35tpGW7AHtBe0DOCZAklAMCRQGijDSUoAkOF+qNgcQxCOlm5ubZVsA9TEHDqs/5ZbgWMR60QJ9koD1IpA3QPobgFkJYFaB/DGguiTh53UsINEG0EbQVwBnSxMt3tGUJNrV+B+QGmjpAWgPQXu4ASA1JLVAioTudbGE7V7mCD7jC20B9IL5gO6V8j8CQOBFxFxdEtvVFj/sakbc1QBSbTzpU31SsKJkD/lpSTDpXxIs8Mn2E/jf9xWsyfEj1mStJgPLgsnND4KFX1fsFm2rOir+rj5esrcpSbqvkfUiKQsJwBxpBkRF/D5ADg4OfdsCqDdvQrrKPEA5asEsLS2YrX3kRQtxWxHKn61aYjNh9xB4X2vTN9cHXwPUyyRLrJZj0GKZzu1vM+ULgaNf3CRh0H1f8Z7KI5JDxnjsRZTJi4izxeZ1sdsFmSKRqE+b5hXc8Te2mgOI+KBQKZgJcD7S0vyZJUd409OW9XFdQsJ7WYF6gnq0YcjnmP6+F0EQGNpA4tMzo0RfKbwlofoL4tCydDu65J+tBWRzMt6Pvae22IuSNaSjp7KwVYCmqMqJGRXx3Hcy/LhvxHnAn/fr4Jk2C8zV1bWXnZ1dP55/7BRujOJqKwN0obXvF8J2mZ0OkK1zB0hFvwWH95YC8T/KUsD5Ns9q+TFjxgwLKip9B3El7wlwNEXWQYdeYb2xnczCeviO4dzXb53+77lPFnL8IAsJlpQi0sfAkKvK1rAXfgYmO5nh7nrdiFwvVyPxpQLkcKf43+Ekl+gGxWXGWH99YDg7Ue0A6zNQ5i2xcz8+3dbt0Czu1Et7iHlliPTWAZw6BiaASPiFQUuszHZ/2h4kOZUpc76mU7sAoCHX6tBLV43opR+rkOjozUjr7SFzB2wNmTrQ20eCP8PTuDeOSb0HjdvpLlheWyD0q0OiL+qRMKCBEW0yFhB/z5U9LTh4sie5US13uqFHLonNgIbG6TXUzp9m4Nj0jBfQbHd6UbA8d4cwoB6JNjcimOgx4p0Nav5a1aCncH1LMrE8XHpbh2Q3atHgRAOSnc0LtZ/1mQSPds9TKqa3wzvfjBYF6YvEOxuRZHcTEn9nlPM3dygkS/6tknDyDsScOzqGul6tkxxL94Hjfdkv7jk0C9vZIX8U7dAXSvY0IMkB0EGDnBdA23YEHIek4nBeSiUjSIJYc6NSx/sqcipFUb1Zr3mOrQd/aczLkj36QulhAHSknpGGG+TU/gJpe8Yc22RNuF1qGeKmVDDEzbJCG7/NY9gu1UmMY//JsZchZ6ORhtchWXQdoo7r1dJDOVRb35gXG2fLT1GH26U3D+EOt4uKbNZsHGtaknA6Vf6a8Ds3jAqvLaRO1DHUaSMji9EWUAfTR//OD8IZfCHBSZKeJycURYw9ALJNLtb19wscw8LpjIYQ4vB9IodTx2qKZGdhdDmvR7If9Ig6+2CTh4dHTxYUCJ8XEBCAg6rFr9Tj4e/w6+G0ym+IsqBKptAgUl6IuPJipu/X+95o8ZxObBZkwNlJsnM6rRPAcfoRqxY5/6BVSw/cwV2jpylp1RuvrLHwZA6vr/DxMbGxg0crsxPcMvOZl5Rq5KQoQCK5BnEvp6zD57JwuoBZSsLursdwsJwBkNMPOvCmGkZ2QhNFfH502PRLZ8d+dPv6sg9Bf77y01suvr5Czxu3gjwUquqxymw0MuM+GpahZgYrC5AwPu0wu5rvYmYlO/fgptNF8J6LAOcCwDlXjkb8VICmp99FC3KU/6a52Qr0njwdeaTK0avyLDRKkYOGK/PQ4LScQq7PGhHbBbuYcUTfJrzvhOF8X40AFno1Lg/D+E19oJSjcSkK5A4QX1HcR06xVz9lczhd1PpQMaU3ZbGVaOj3RRhAq/S2XI5Gp6qQW2qWxpSN5HRVQD2wF8nOPkDvpmS3GtDce0o0JlmJhn3/sw8O3l0akK2tbX9JZPYd/MHN0YTbyUX9+vWzw6NilwaER59XdhyZaS6gdy7EBplSuBYIoa4JyDQZ7D1xS9BIcwG9ff7CKhzDIK3atT0Ir7bdz51fOS9bYRagEdG3t/N4PKsu7UEYEKjvq7S8YFqGvNVwZmVkIml4mZb3169IM7aNOufabGQC7T02XYUmwgRw3r3WeZHbuUIkjahC4v2a4K47BwLDQ/QI+b2Cscp7zOtpGeiNdDkz5wldbfzlfESFVwIgHXiRTmvrE87rsuV7Q6+nLHPLzENjMnLQeEUWmpimRG+lpaGZqvT/8qZpKXfRsJgiJGXhaAGSHsH2MmQpy/ey3ayrmfjEFech6bmaP2aqmdGZ99H4zHtoojILTZEr0eTExDvOH388YdzWQLcph795efD6A1NF+1SnpZHViMKeE2FgIPHGQCUHkoY2INHWvKldKg7h3I+MvhfpklHADM/IR+7gReNUucgjTZnpHhHhNXDgwBdNqYveD8VuJS/dN0K0T32agqwkdbQe4NQjCU7j7q9Tc9cm2HWZkUtw6+5mKSS6XCBV8XKGGo1U5OhGXr2xA4N5WNDw64QZ/Nzy2sbGZgAZrPSRHIT07eFG2AQAQPtga2lHTRS7xd3ZzfZGjj9fXoTEyiLGGQANTcnOJNYFupuZCbR0XBb1inB78Snx/kYGiqmQeDdA+roiqDOPahzbm/mLbNNLEA8AiRSFSBJHh/KaKyosfudu7gBhcOFWDEe8qwlBFRoSbqzZ1BmDNod3U7PIPgUKJdNKEDe9CPF/Sd6O11LtEFx7EeuyV2A4oi3gRUGNjHC9diPukp0GDpmgXuyYXMlwU8tZQLa/pGA47ZkitSTWAqSgRiQMbGCE/6hH5OqKzZ0hJlmIrz34krxThfh0JeKmVjA2caotbEVFuxtAWpW1QgT1AMK/gz6rQ8SK0iA2X/ScWk/qStl30ls6JLxTwxB0FbK/rNrawbudvYhPspcL19Qh0teIoA4bEd5V39vNVlLP0zyJ43rm7ijnhNp0Zyg/AUCM8HY14l/M3G6G57QN0uLMlRgO+YkBQWU/A1W1+cTs0kXPPHgPPqoa5Ppz9UZcj+OSWMcMvmFA1K1aRnAhK5StsHh61pu/KH8r6a2HSjcDI1hQiwTzahExqzzC7l0lNUAwrQf3zRSO87tZf3BbQnfcXXA3JdhJo6p9qShthCSiKsr5tFbjeqkWDUkwIpdrBrY2h7pWpeH5bhQ+bRfHuSL+3KLjUN0PcPQMFLMjgVcpPGSTq3b0TIvmecojeZ6pS+w9EynJpPaH1EMaXu5PnTBWwz47+k/JTuG6QC0afF2P+JtChz+r/s8bu1EomFOlEcysQI5v5jym4FSl5nqm+1s5vtmj3eBIjjwIwiB+UyfxnntJoeSoahYO2M8IkqW9x9mljlOeXLLM81Rs7DVoaNvvkdx02RUDaJ10SHZRx8guaNXUuapwWUi26QG7DjcLx5nqycSHZeF8k+e0RvbjE6cghNp2Yeha0a0GBJKdqWL332UXQOcN4FU6texYmb9kX6asHUeVnpJ5uTJiQfFiwaKq3cR8bT45FwLzjBKznivhTUiN8vLysmjTECqNrtWYA4g6XYVkP+oZp4sGBpe7OJ0zIlmMEVEQp+C9FFRk7bfiAyV/Fn9zf5SpNM/y4Yq+pezl0c+W3PkJdsSKTBm5utJL6FvuT67SnRf66GvIT4wMuQyG9cUQlOcDnDk6xH9PbQYg0ERlYVunIn3MggOSnqyEboarNwywBw86B14UAy0Aoo4DpGNQTBUB54WBjuD8DohNYYB21xWId4HwQnQbrLOCQZsgQbYBtK55tiz0B7XMefSIXAxaoG8G9M598wCB2jQdwUksKlqvMwvSqWrkxAIC72kBBMKATgCgKGgj4bywehYQrmOUAqBHaYwmhgW0vQkDYloArW9oAUSaAJHLQC0eVMuYC4g3UaXjcDhWbZqAScIrbpkHqAzHIAwIPMjIACCISxiQyYOiQdiDHgF65EF7mxhcPizaBZBYQNBubvyVB9UzQj+A8z88iMCApuWbGYOSL7V17daDDIzzajWc47XgMeVsDJL90ByDmgEBKACEz4EYpJPsL74s2p0fKgxK8yXW3VxEfBY/ne8b50X4m9pV8dO5y+O8uEvjvPggx6W3FxLLVRv4KwpCyJUPkoQrdToTIEaw6FEMEswsR6YhvlXijo//W3sMHH0lIZrTrQNUgCvHWjyIitVqqeNlt0UheSGinWmf8pYeHmF6GugFkKUZhQgc07k9TUHVxuHtMxP5f0lZRcxRnxLMrSwED/oXPKOGHN/Pa90Q/1pCaHulYDgga9GBvNDHBubjegi+GgRlLUWS45BkD1NsIDfETMaP3IOsMIwOWjhamFK31g4TT00ivHIPETOKC+EfHTC8SarHwWG44xNCTflwTns+vGJFbI6fJjqkOQ1xKQvWYiXiQ5o00a70aO76E94D3p6H5zn98d77MypR4YAsrcHsJ8RO53omhjh4JKZwPZLLuJ5ppVxPRRHX485Je3hSCZfgdNRK38Lk4gP69+9vS5Lki7gLshUXz5/1cnZ2xiC4VlZWPGgHPs0vj9POF+m+327rtm7rtv9h/wdIDuPuRAI/pwAAAABJRU5ErkJggg==;" vertex="1" parent="pWDJ1lg3izUaxeUPgroV-167">
          <mxGeometry y="119.36134614439474" width="65.36865385560523" height="65.36865385560523" as="geometry" />
        </mxCell>
        <mxCell id="pWDJ1lg3izUaxeUPgroV-146" value="Agora Dataset" style="shape=image;verticalLabelPosition=bottom;labelBackgroundColor=default;verticalAlign=top;aspect=fixed;imageAspect=0;image=data:image/png,iVBORw0KGgoAAAANSUhEUgAAAEAAAABACAYAAACqaXHeAAAABGdBTUEAALGPC/xhBQAAAAFzUkdCAK7OHOkAAAAgY0hSTQAAeiYAAICEAAD6AAAAgOgAAHUwAADqYAAAOpgAABdwnLpRPAAAAAZiS0dEAP8A/wD/oL2nkwAAAAlwSFlzAAAOwwAADsMBx2+oZAAABbtJREFUeNrdm0moHFUUhr+q7pen+BwCooKIZCFKVg44kLgQxYUDgi5EwZCF+kzkmeAAggOYhQOoycKY4YkKzgvJwmxcmKBiRCQgCgkISTAaE5yjIuYl3V0uzjmp6rLm6VXlh+J2375ddc9/z3SHAoED9PTzFcCbwAHgGOB17BpouQXYp58PAO8AV6mMPZX5uPAAk8B6YNQCIYpeQy33AIuAH0L1I2ADcFJIdiaBjwIMDjpKhAl6jQr3c6De5PKAbSrzcazXH+Y6KriHb65rVKbTgUOBkfcCMnrAyyb8Uv1zVwUP2v02wFW5pmIIsO/HgKUuMA30tbKL8BCn9pvKMgrUx2GkMk8D7I9hqSuXjf6dKtyElqeQrAEe8B3A0RYIUdbuN6rQfXzPnkSAXUdpgRBFL/P4X6uwqPB5CPDMYXQNHuLs5oC7gX8QP+DlvVFXCRhq+SiwE1H9YdGbzbcqF7X7Ldr/XkieE9oELHx9D6wM1BVG1wgw3Af8REG77yoBA+3vs8CHlLT7IObbpvMkO5/iT2UdonHC+QBPhT4M3IuMukNJ1Td0gQBzcquBb6lh3jLf6p0l5L2qfe2Rjlwm0GYCLNXdBZwWEq4yAtpqAp4KMkDs/i8qCHlRaCsB5ugeBz6nwpAXhflW9biQt1X7l3eQOm0CI0TVDwIrmnhg2wgwrAR+VDJqX6qbb5UPq/6L2q9+Qp8rywTbQoCFvC+ABSFBouBWRYADXJxfaSqHhz/N/YX4VNfqzwOuBN5XMqLMxAUWI4uklYfPupCk2uCbxbvAulBdIbgtuyB+tHqIn7gFuAOZHJWWrysbIi7iJ85FtvEgW1qcKltbw2AcNiD2n5WAVHSBANPSVYj6H6ny5m0nwEXs/hLgOa3LMiVuNQEu/v5dEhxk5CeBzcDJ+JOkytAHvmpQ+BGybb0M+JL4GA6+138auFw/97VMI85TwrYC5yB7gLHENZ3qvqLPTdI+U/MbGc8Ug6tEdhAinAfkygSbCoNDRO13AjMB4qPgaPuzEK9fBqNAGakBfer3A54K/y9yIGGOZNW3mP8ScD6+6heBGyidpAZ1wgR9BPE3SVpnKz/TwO36uVSqmwVNrOq+p89KCmE2GIuRNcA4263UB9SpAbaRuQ/f7uNG3jx3Dwl5p1JDyItCEyYwDfxK8qqu/fYUcDVi95UmPE0TYBuZa5Cja0mruhbvrwWewF8baAR1EGCOa7sSYOv7UbCQtxDYpHWNLl5UTYDZsZ3Zsw2OtOevAy7A15zOEmBObgbYS7aQtwxYTkMhL6oTVcESlk1I2EvK222WtwhYy3ioyvqcSjLYqgiwkPcNkvBAvNOzWd4E8DZwZuB7HlSivVUQ4OGf2bsH/8xeEgEesAT4G9GWPCFviJwE3xV4fmkBqsj2Vuckta4kp9GNkbQze2kd7ZW43IT7NkKAzdH3A2fXPKp5kHs9oCxWIGf2FjDumY2gOAT3ArK0H3vRKUP7zCij+s/oPRqP3wmoXQMsYfkMeBI/l78LuAH4E5nNrUXm/+HFD/sebD+FZINJ7ZcD1yNT5SngBSTsJi2uZEKedwONycPAhfp/282d1d+OaHmr1ocdo5G+OdT+tpT2r4fa3xzTPtcLEy5yGgOy2ZMxvYr/n9kbhMq0UQn/L+0MUPj+Zezf/nvQBT7O2GGbo78GvIGv+gYbCRsxJ1AGL4NbUfsiMFk/cRHVTZuFWaq7G3gwI2FBtsfibsXti8DmIrMusAOxRwf/Bapwh4qc2bMRWoi8lbob2RMYVNS+KGyTZBbYYer0MHARcB2+LdpSsp3cegz/zF6WTplAE8BlwBnAHxnbX6pE/B7xexGYIwRx2tuBh4JCzgE3Ia+TuvhJx1A/fwA8j686eR+e1dFZe2tX5aaNpc8bVdY5wHEZV/EZ5BXzt5A3r3vIguYDJR4cfDU/yxQ2b/ssOIQcq1kC3I+Efgfw/gOY1xdt9xaodwAAAABJRU5ErkJggg==;" vertex="1" parent="pWDJ1lg3izUaxeUPgroV-167">
          <mxGeometry x="3.7701974865350087" width="58.10547009387132" height="58.10547009387132" as="geometry" />
        </mxCell>
        <mxCell id="pWDJ1lg3izUaxeUPgroV-163" value="" style="endArrow=classic;html=1;rounded=0;exitX=1;exitY=0.5;exitDx=0;exitDy=0;entryX=-0.012;entryY=0.514;entryDx=0;entryDy=0;entryPerimeter=0;" edge="1" parent="pWDJ1lg3izUaxeUPgroV-167" source="pWDJ1lg3izUaxeUPgroV-144" target="pWDJ1lg3izUaxeUPgroV-137">
          <mxGeometry width="50" height="50" relative="1" as="geometry">
            <mxPoint x="194.16517055655294" y="297.5544807588342" as="sourcePoint" />
            <mxPoint x="282.7648114901257" y="295.3119727723988" as="targetPoint" />
          </mxGeometry>
        </mxCell>
        <mxCell id="pWDJ1lg3izUaxeUPgroV-162" value="" style="endArrow=classic;html=1;rounded=0;exitX=1;exitY=0.5;exitDx=0;exitDy=0;entryX=-0.049;entryY=0.385;entryDx=0;entryDy=0;entryPerimeter=0;" edge="1" parent="pWDJ1lg3izUaxeUPgroV-167" source="pWDJ1lg3izUaxeUPgroV-146" target="pWDJ1lg3izUaxeUPgroV-137">
          <mxGeometry width="50" height="50" relative="1" as="geometry">
            <mxPoint x="490.12567324955114" y="358.86483068757053" as="sourcePoint" />
            <mxPoint x="537.2531418312387" y="313.46993217673355" as="targetPoint" />
          </mxGeometry>
        </mxCell>
      </root>
    </mxGraphModel>
  </diagram>
</mxfile>
